<svg id="Layer_1" data-name="Layer 1" xmlns="http://www.w3.org/2000/svg" viewBox="0 0 90.75 90.75"><defs><style>.cls-1{fill:#e20000;stroke:#000;stroke-miterlimit:10;stroke-width:0.75px;}.cls-2{fill:#fff;}</style></defs><title>danesSet</title><path class="cls-1" d="M83,29.61h5.25c2.31,0,2.63-1,.71-2.23L48.75,1.73a7.11,7.11,0,0,0-7,0L1.52,27.38c-1.92,1.23-1.62,2.23.7,2.23H7.47L41.76,7.75a7.11,7.11,0,0,1,7,0L83,29.61Z" transform="translate(0.12 -0.44)"/><path class="cls-1" d="M13.77,29.79l28-17.68a7.15,7.15,0,0,1,7,0l28,17.68v57a4.1,4.1,0,0,1-4.2,4H18a4.1,4.1,0,0,1-4.2-4v-57Z" transform="translate(0.12 -0.44)"/><path class="cls-2" d="M34.76,64.72a4.11,4.11,0,0,1,4.2-4H51.55a4.1,4.1,0,0,1,4.2,4V90.81h-21V64.72Z" transform="translate(0.12 -0.44)"/></svg>